<?xml version="1.0" encoding="UTF-8"?>
<svg width="700pt" height="700pt" version="1.1" viewBox="0 0 700 700" xmlns="http://www.w3.org/2000/svg">
 <path d="m371.97 481.32c12.082 0 21.875 9.793 21.875 21.875 0 10.738-7.7383 19.672-17.945 21.523l-3.9297 0.35156h-350c-12.082 0-21.875-9.793-21.875-21.875 0-10.738 7.7383-19.672 17.941-21.523l3.9336-0.35156zm306.25-218.75c12.082 0 21.875 9.793 21.875 21.875 0 10.738-7.7383 19.672-17.945 21.523l-3.9297 0.35156h-656.25c-12.082 0-21.875-9.793-21.875-21.875 0-10.738 7.7383-19.672 17.941-21.523l3.9336-0.35156zm0-218.75c12.082 0 21.875 9.793 21.875 21.875 0 10.738-7.7383 19.672-17.945 21.523l-3.9297 0.35156h-350c-12.082 0-21.875-9.793-21.875-21.875 0-10.738 7.7383-19.672 17.941-21.523l3.9336-0.35156z"/>
</svg>
